<?xml version="1.0" encoding="utf-8"?>
<!-- Generator: Adobe Illustrator 16.0.0, SVG Export Plug-In . SVG Version: 6.00 Build 0)  -->
<!DOCTYPE svg PUBLIC "-//W3C//DTD SVG 1.1//EN" "http://www.w3.org/Graphics/SVG/1.1/DTD/svg11.dtd">
<svg version="1.1" id="Layer_1" xmlns="http://www.w3.org/2000/svg" xmlns:xlink="http://www.w3.org/1999/xlink" x="0px" y="0px"
	 width="454.5px" height="1488.652px" viewBox="-112 -368.5 454.5 1488.652" enable-background="new -112 -368.5 454.5 1488.652"
	 xml:space="preserve">
<polyline id="Spire" fill="#C5C2C6" stroke="#424242" stroke-width="2" stroke-miterlimit="10" points="81,-1.385 81,-19.385 
	99,-73.385 99,-172.385 99,-190.385 108,-199.385 117,-361.385 126,-199.385 135,-190.385 135,-172.385 135,-73.385 153,-19.385 
	153,-1.385 "/>
<polyline fill="#C5C2C6" stroke="#424242" stroke-width="2" stroke-miterlimit="10" points="63,34.615 63,-1.385 171,-1.385 
	171,34.615 "/>
<polyline fill="#EEDEC3" stroke="#424242" stroke-width="2" stroke-miterlimit="10" points="-18,772.615 -18,691.615 252,691.615 
	252,772.615 "/>
<polyline fill="#EEDEC3" stroke="#424242" stroke-width="2" stroke-miterlimit="10" points="306,1019.152 306,848.152 -72,848.152 
	-72,1019.152 "/>
<polyline fill="#EEDEC3" stroke="#424242" stroke-width="2" stroke-miterlimit="10" points="45,1034.281 45,34.615 189,34.615 
	189,1034.281 "/>
<polyline fill="#EEDEC3" stroke="#424242" stroke-width="2" stroke-miterlimit="10" points="9,772.615 9,116.999 81,116.999 
	81,691.615 153,691.615 153,116.999 225,116.999 225,772.615 "/>
<polyline fill="#EEDEC3" stroke="#424242" stroke-width="2" stroke-miterlimit="10" points="-36,1019.771 -36,772.615 81,772.615 
	81,1019.771 "/>
<polyline fill="#EEDEC3" stroke="#424242" stroke-width="2" stroke-miterlimit="10" points="153,1019.771 153,772.615 270,772.615 
	270,1019.771 "/>
<polyline id="Base" fill="#EEDEC3" stroke="#424242" stroke-width="2" stroke-miterlimit="10" points="-99,1120.152 -99,1019.771 
	333,1019.771 333,1120.152 "/>
</svg>
